<?xml version="1.0" encoding="UTF-8"?>
<!DOCTYPE svg PUBLIC "-//W3C//DTD SVG 1.1//EN" "http://www.w3.org/Graphics/SVG/1.1/DTD/svg11.dtd">
<!-- Creator: CorelDRAW -->
<svg xmlns="http://www.w3.org/2000/svg" xml:space="preserve" width="61px" height="61px" style="shape-rendering:geometricPrecision; text-rendering:geometricPrecision; image-rendering:optimizeQuality; fill-rule:evenodd; clip-rule:evenodd"
viewBox="0 0 5.5657 5.55011"
 xmlns:xlink="http://www.w3.org/1999/xlink">
 <defs>
  <style type="text/css">
   <![CDATA[
    .fil1 {fill:#EE0000}
    .fil3 {fill:#EE9E00}
    .fil2 {fill:#EEEE00}
    .fil4 {fill:white}
    .fil0 {fill:url(#id0)}
   ]]>
  </style>
  <radialGradient id="id0" gradientUnits="userSpaceOnUse" cx="2.78285" cy="2.77565" r="2.78285" fx="2.78285" fy="2.77565">
   <stop offset="0" style="stop-color:black"/>
   <stop offset="0.678431" style="stop-color:black"/>
   <stop offset="0.909804" style="stop-color:#333333"/>
   <stop offset="0.988235" style="stop-color:#4C4C4C"/>
   <stop offset="1" style="stop-color:#666666"/>
  </radialGradient>
 </defs>
 <g id="Слой_x0020_1">
  <metadata id="CorelCorpID_0Corel-Layer"/>
  <path class="fil0" d="M0 0l5.5657 0 0 5.55011 -1.53058 0c-0.606948,0.00118326 -0.728128,-0.159123 -0.888617,-0.641947 -0.236745,-0.712272 -0.102234,-2.04816 0.749479,-2.04816l0.0927678 0c0.316786,0 0.602951,0.212987 0.602951,0.510197l0 0.0463839c0,0.144753 -0.08484,0.268417 -0.139139,0.371045 0.166603,-0.0444907 0.278277,-0.214289 0.278277,-0.417429 0,-0.440108 -0.355834,-0.742103 -0.788474,-0.742103 -0.276818,0 -0.476908,0.0773723 -0.74209,0.139152 -0.13526,-0.511669 -0.42863,-1.74146 0.602951,-1.90162 0.0154613,0 0,0 0.0463839,0 0.204639,0 0.330406,0.0685504 0.4638,0.139139 -0.0518269,-0.194121 -0.316681,-0.27829 -0.556568,-0.27829 -0.609735,0 -1.06676,0.674263 -1.06676,1.29867l0 0.231906c-0.266313,-0.0711141 -0.55595,-0.463813 -1.06675,-0.463813l-0.231906 0c-0.360974,0 -0.74209,0.250273 -0.74209,0.602951l0 0.0463839c0,0.209214 0.110477,0.326239 0.278277,0.371045 -0.104824,-0.156546 -0.139139,-0.180842 -0.139139,-0.371045 0,-0.748914 1.76247,-0.662575 1.76247,1.15953l0 0.0463708c0,0.891234 -0.198486,1.36688 -0.556568,1.90162l2.04075 1.31474e-005 -4.03512 0 0 -5.55011zm4.47143 2.09906c0.241714,0.0569938 0.386769,0.29976 0.373004,0.364445 -0.0943324,0.0346039 -0.349694,-0.230066 -0.373004,-0.364445zm0.734793 0.237718l-0.0115697 -0.12611c-0.0791209,-0.296302 -0.800648,-0.800372 -0.927613,-0.324661 -0.501546,0 -0.69305,0.193358 -0.788474,0.602951l0.324661 0c0.0526947,-0.226187 0.20523,-0.395907 0.463813,-0.417429 0.0876141,0.37612 0.788474,0.799662 0.788474,0.510197 0,-0.384311 -0.36689,-0.563102 -0.624171,-0.65675 0.108308,-0.2328 0.663666,0.245711 0.77488,0.411802zm-3.3624 0.323846l-0.0212199 -0.0750452c-0.258885,0.0920184 -0.57032,0.301193 -0.57032,0.64547 -0.0176832,0.183235 0.136088,0.305124 0.371045,0.324674 -0.0601229,0.292621 0.0566389,0.799991 0.591802,0.925391l0.0575329 -0.276055c-0.388084,-0.186219 -0.473318,-0.262855 -0.453203,-0.687975 0.334561,-0.181144 0.545852,-0.405228 0.453203,-0.517927 -0.0770567,-0.0937539 -0.252508,0.00934778 -0.613601,0.400429 -0.119076,-0.0242569 -0.232275,-0.0320796 -0.232275,-0.189795 0,-0.257057 0.241465,-0.441817 0.417035,-0.549166z"/>
  <path class="fil1" d="M1.36007 1.24817c-0.0567572,-0.0283983 0.0829993,-0.179133 0.239322,-0.243844 -0.00542986,0.112397 -0.161607,0.281064 -0.239322,0.243844zm0.0242832 -0.699808c0.160924,0 0.327488,0.0276884 0.393133,0.218693 0.520833,-0.191991 0.839551,0.517796 0.634321,1.07256l-0.27829 -0.0463839c0.11053,-0.50829 0.0751766,-0.880847 -0.352323,-0.874537 -0.0241517,0.283654 -0.238178,0.457108 -0.482535,0.457108 -0.0649874,0 -0.0927547,-0.0632257 -0.0927547,-0.139139 0.0778193,-0.237888 0.286087,-0.340293 0.371045,-0.371045 0,-0.119457 -0.125571,-0.172783 -0.248617,-0.167668 -0.322807,0.0385612 -0.483284,0.379144 -0.307951,0.631481 -0.381576,-0.214065 -0.037115,-0.781072 0.363972,-0.781072z"/>
  <path class="fil2" d="M4.47143 2.09906c0.241714,0.0569938 0.386769,0.29976 0.373004,0.364445 -0.0943324,0.0346039 -0.349694,-0.230066 -0.373004,-0.364445zm0.734793 0.237718l-0.0115697 -0.12611c-0.0791209,-0.296302 -0.800648,-0.800372 -0.927613,-0.324661 -0.501546,0 -0.69305,0.193358 -0.788474,0.602951l0.324661 0c0.0526947,-0.226187 0.20523,-0.395907 0.463813,-0.417429 0.0876141,0.37612 0.788474,0.799662 0.788474,0.510197 0,-0.384311 -0.36689,-0.563102 -0.624171,-0.65675 0.108308,-0.2328 0.663666,0.245711 0.77488,0.411802z"/>
  <path class="fil3" d="M1.84383 2.66062l-0.0212199 -0.0750452c-0.258885,0.0920184 -0.57032,0.301193 -0.57032,0.64547 -0.0176832,0.183235 0.136088,0.305124 0.371045,0.324674 -0.0601229,0.292621 0.0566389,0.799991 0.591802,0.925391l0.0575329 -0.276055c-0.388084,-0.186219 -0.473318,-0.262855 -0.453203,-0.687975 0.334561,-0.181144 0.545852,-0.405228 0.453203,-0.517927 -0.0770567,-0.0937539 -0.252508,0.00934778 -0.613601,0.400429 -0.119076,-0.0242569 -0.232275,-0.0320796 -0.232275,-0.189795 0,-0.257057 0.241465,-0.441817 0.417035,-0.549166z"/>
  <path class="fil4" d="M4.03512 5.55011c-0.606948,0.00118326 -0.728128,-0.159123 -0.888617,-0.641947 -0.236745,-0.712272 -0.102234,-2.04816 0.749479,-2.04816l0.0927678 0c0.316786,0 0.602951,0.212987 0.602951,0.510197l0 0.0463839c0,0.144753 -0.08484,0.268417 -0.139139,0.371045 0.166603,-0.0444907 0.278277,-0.214289 0.278277,-0.417429 0,-0.440108 -0.355834,-0.742103 -0.788474,-0.742103 -0.276818,0 -0.476908,0.0773723 -0.74209,0.139152 -0.13526,-0.511669 -0.42863,-1.74146 0.602951,-1.90162 0.0154613,0 0,0 0.0463839,0 0.204639,0 0.330406,0.0685504 0.4638,0.139139 -0.0518269,-0.194121 -0.316681,-0.27829 -0.556568,-0.27829 -0.609735,0 -1.06676,0.674263 -1.06676,1.29867l0 0.231906c-0.266313,-0.0711141 -0.55595,-0.463813 -1.06675,-0.463813l-0.231906 0c-0.360974,0 -0.74209,0.250273 -0.74209,0.602951l0 0.0463839c0,0.209214 0.110477,0.326239 0.278277,0.371045 -0.104824,-0.156546 -0.139139,-0.180842 -0.139139,-0.371045 0,-0.748914 1.76247,-0.662575 1.76247,1.15953l0 0.0463708c0,0.891234 -0.198486,1.36688 -0.556568,1.90162l2.04075 1.31474e-005z"/>
 </g>
</svg>
