<?xml version="1.0" encoding="UTF-8"?>
<!DOCTYPE svg PUBLIC "-//W3C//DTD SVG 1.1//EN" "http://www.w3.org/Graphics/SVG/1.1/DTD/svg11.dtd">
<!-- Creator: CorelDRAW -->
<svg xmlns="http://www.w3.org/2000/svg" xml:space="preserve" width="60px" height="60px" style="shape-rendering:geometricPrecision; text-rendering:geometricPrecision; image-rendering:optimizeQuality; fill-rule:evenodd; clip-rule:evenodd"
viewBox="0 0 5.50316 6.04039"
 xmlns:xlink="http://www.w3.org/1999/xlink">
 <defs>
  <style type="text/css">
   <![CDATA[
    .fil0 {fill:#EE0000}
    .fil2 {fill:#EE9E00}
    .fil1 {fill:#EEEE00}
    .fil3 {fill:white}
   ]]>
  </style>
 </defs>
 <g id="Слой_x0020_1">
  <metadata id="CorelCorpID_0Corel-Layer"/>
  <path class="fil0" d="M0.858322 0.845128c-0.0685432,-0.0342954 0.100235,-0.216331 0.289018,-0.29448 -0.00655741,0.135737 -0.195166,0.339429 -0.289018,0.29448zm0.0293258 -0.845128c0.194341,0 0.395493,0.033438 0.474769,0.264107 0.628988,-0.231859 1.01389,0.62532 0.766042,1.29529l-0.336079 -0.0560159c0.133482,-0.61384 0.0907876,-1.06376 -0.425486,-1.05614 -0.029167,0.342557 -0.287637,0.552029 -0.582736,0.552029 -0.0784825,0 -0.112016,-0.0763549 -0.112016,-0.168032 0.093979,-0.287288 0.345495,-0.410958 0.448095,-0.448095 0,-0.144263 -0.151646,-0.208662 -0.300244,-0.202486 -0.389841,0.0465687 -0.583641,0.457876 -0.371899,0.762613 -0.460813,-0.258518 -0.0448222,-0.943267 0.439553,-0.943267z"/>
  <path class="fil1" d="M4.61578 1.8727c0.291908,0.068829 0.467085,0.362007 0.450461,0.440125 -0.113921,0.0417896 -0.42231,-0.277841 -0.450461,-0.440125zm0.887378 0.287081l-0.0139722 -0.152297c-0.0955509,-0.357831 -0.966909,-0.966575 -1.12024,-0.392079 -0.605695,0 -0.836967,0.233511 -0.952206,0.728158l0.392079 0c0.0636371,-0.273157 0.247848,-0.478119 0.560127,-0.504111 0.105808,0.454224 0.952206,0.965718 0.952206,0.616143 0,-0.464116 -0.443078,-0.680034 -0.753785,-0.793129 0.130799,-0.281143 0.801481,0.296735 0.935789,0.497315z"/>
  <path class="fil2" d="M1.44254 2.55088l-0.0256263 -0.0906288c-0.312644,0.111127 -0.688751,0.363738 -0.688751,0.779506 -0.0213553,0.221285 0.164348,0.368485 0.448095,0.392095 -0.0726079,0.353386 0.0684003,0.966115 0.714694,1.11755l0.06948 -0.33338c-0.468672,-0.224889 -0.571606,-0.317439 -0.547314,-0.830838 0.404035,-0.21876 0.659202,-0.489377 0.547314,-0.625479 -0.0930581,-0.113223 -0.304943,0.0112889 -0.741019,0.483581 -0.143803,-0.029294 -0.280508,-0.0387411 -0.280508,-0.229208 0,-0.310437 0.291606,-0.533564 0.503635,-0.663204z"/>
  <path class="fil3" d="M4.08887 6.04039c-0.732985,0.00142898 -0.879328,-0.192166 -1.07315,-0.775251 -0.285906,-0.86018 -0.123464,-2.47348 0.905113,-2.47348l0.112032 0c0.382569,0 0.728158,0.257216 0.728158,0.616143l0 0.0560159c0,0.174811 -0.102458,0.324155 -0.168032,0.448095 0.2012,-0.0537295 0.336063,-0.258788 0.336063,-0.504111 0,-0.5315 -0.429725,-0.896206 -0.952206,-0.896206 -0.334301,0 -0.575941,0.0934391 -0.89619,0.168048 -0.163348,-0.617921 -0.517639,-2.10309 0.728158,-2.29651 0.018672,0 0,0 0.0560159,0 0.247133,0 0.399018,0.0827853 0.560111,0.168032 -0.0625891,-0.234431 -0.382442,-0.336079 -0.672143,-0.336079 -0.736351,0 -1.28829,0.814278 -1.28829,1.56835l0 0.280063c-0.321615,-0.0858815 -0.671396,-0.560127 -1.28827,-0.560127l-0.280063 0c-0.435933,0 -0.89619,0.302244 -0.89619,0.728158l0 0.0560159c0,0.252659 0.133419,0.393985 0.336063,0.448095 -0.126591,-0.189054 -0.168032,-0.218395 -0.168032,-0.448095 0,-0.904431 2.12846,-0.800163 2.12846,1.40032l0 0.056c0,1.0763 -0.239703,1.65072 -0.672143,2.29651l2.46452 1.58775e-005z"/>
 </g>
</svg>
